<svg width="428" height="514" viewBox="0 0 428 514" fill="none" xmlns="http://www.w3.org/2000/svg">
<path d="M427.854 5.85355C428.049 5.65829 428.049 5.34171 427.854 5.14645L424.672 1.96447C424.476 1.7692 424.16 1.7692 423.964 1.96447C423.769 2.15973 423.769 2.47631 423.964 2.67157L426.793 5.5L423.964 8.32843C423.769 8.52369 423.769 8.84027 423.964 9.03553C424.16 9.2308 424.476 9.2308 424.672 9.03553L427.854 5.85355ZM402.5 5.5V5H402.313L402.172 5.12254L402.5 5.5ZM322.828 75.3775L402.828 5.87746L402.172 5.12254L322.172 74.6225L322.828 75.3775ZM402.5 6H427.5V5H402.5V6Z" fill="black" fill-opacity="0.51"/>
<path d="M427.854 173.854C428.049 173.658 428.049 173.342 427.854 173.146L424.672 169.964C424.476 169.769 424.16 169.769 423.964 169.964C423.769 170.16 423.769 170.476 423.964 170.672L426.793 173.5L423.964 176.328C423.769 176.524 423.769 176.84 423.964 177.036C424.16 177.231 424.476 177.231 424.672 177.036L427.854 173.854ZM402.5 173.5V173H402.276L402.127 173.167L402.5 173.5ZM322.873 263.333L402.873 173.833L402.127 173.167L322.127 262.667L322.873 263.333ZM402.5 174H427.5V173H402.5V174Z" fill="black" fill-opacity="0.51"/>
<path d="M0.146447 335.854C-0.0488155 335.658 -0.0488155 335.342 0.146447 335.146L3.32843 331.964C3.52369 331.769 3.84027 331.769 4.03553 331.964C4.2308 332.16 4.2308 332.476 4.03553 332.672L1.20711 335.5L4.03553 338.328C4.2308 338.524 4.2308 338.84 4.03553 339.036C3.84027 339.231 3.52369 339.231 3.32843 339.036L0.146447 335.854ZM36.5 335.5V335H36.5938L36.6812 335.034L36.5 335.5ZM117.319 367.466L36.3188 335.966L36.6812 335.034L117.681 366.534L117.319 367.466ZM36.5 336H0.5V335H36.5V336Z" fill="black" fill-opacity="0.51"/>
<path d="M0.646447 510.354C0.451184 510.158 0.451184 509.842 0.646447 509.646L3.82843 506.464C4.02369 506.269 4.34027 506.269 4.53553 506.464C4.7308 506.66 4.7308 506.976 4.53553 507.172L1.70711 510L4.53553 512.828C4.7308 513.024 4.7308 513.34 4.53553 513.536C4.34027 513.731 4.02369 513.731 3.82843 513.536L0.646447 510.354ZM37.8153 509.612L38.03 510.064L37.8153 509.612ZM119.215 471.452L38.03 510.064L37.6005 509.161L118.785 470.548L119.215 471.452ZM36.0972 510.5H1V509.5H36.0972V510.5ZM38.03 510.064C37.4262 510.351 36.7659 510.5 36.0972 510.5V509.5C36.6173 509.5 37.1308 509.384 37.6005 509.161L38.03 510.064Z" fill="black" fill-opacity="0.51"/>
<path d="M427.354 500.854C427.549 500.658 427.549 500.342 427.354 500.146L424.172 496.964C423.976 496.769 423.66 496.769 423.464 496.964C423.269 497.16 423.269 497.476 423.464 497.672L426.293 500.5L423.464 503.328C423.269 503.524 423.269 503.84 423.464 504.036C423.66 504.231 423.976 504.231 424.172 504.036L427.354 500.854ZM320.5 501H403V500H320.5V501ZM403 501H427V500H403V501Z" fill="black" fill-opacity="0.51"/>
<path d="M1.14645 170.146C0.951184 170.342 0.951184 170.658 1.14645 170.854L4.32843 174.036C4.52369 174.231 4.84027 174.231 5.03553 174.036C5.2308 173.84 5.2308 173.524 5.03553 173.328L2.20711 170.5L5.03553 167.672C5.2308 167.476 5.2308 167.16 5.03553 166.964C4.84027 166.769 4.52369 166.769 4.32843 166.964L1.14645 170.146ZM38.1303 172.614L38.5712 172.378L38.1303 172.614ZM118.441 321.764L38.5712 172.378L37.6893 172.85L117.559 322.236L118.441 321.764ZM34.6028 170H1.5V171H34.6028V170ZM38.5712 172.378C37.7884 170.914 36.263 170 34.6028 170V171C35.8941 171 37.0805 171.711 37.6893 172.85L38.5712 172.378Z" fill="black" fill-opacity="0.51"/>
<path d="M0.146447 3.64645C-0.0488155 3.84171 -0.0488155 4.15829 0.146447 4.35355L3.32843 7.53553C3.52369 7.7308 3.84027 7.7308 4.03553 7.53553C4.2308 7.34027 4.2308 7.02369 4.03553 6.82843L1.20711 4L4.03553 1.17157C4.2308 0.976311 4.2308 0.659728 4.03553 0.464466C3.84027 0.269204 3.52369 0.269204 3.32843 0.464466L0.146447 3.64645ZM38.1413 6.06543L38.5789 5.82361L38.1413 6.06543ZM150.438 208.258L38.5789 5.82361L37.7037 6.30725L149.562 208.742L150.438 208.258ZM34.6402 3.5H0.5V4.5H34.6402V3.5ZM38.5789 5.82361C37.7867 4.38998 36.2782 3.5 34.6402 3.5V4.5C35.9142 4.5 37.0875 5.1922 37.7037 6.30725L38.5789 5.82361Z" fill="black" fill-opacity="0.51"/>
<path d="M427.854 338.854C428.049 338.658 428.049 338.342 427.854 338.146L424.672 334.964C424.476 334.769 424.16 334.769 423.964 334.964C423.769 335.16 423.769 335.476 423.964 335.672L426.793 338.5L423.964 341.328C423.769 341.524 423.769 341.84 423.964 342.036C424.16 342.231 424.476 342.231 424.672 342.036L427.854 338.854ZM402.5 338.5V338H402.307L402.164 338.13L402.5 338.5ZM322.836 411.37L402.836 338.87L402.164 338.13L322.164 410.63L322.836 411.37ZM402.5 339H427.5V338H402.5V339Z" fill="black" fill-opacity="0.51"/>
</svg>
